<?xml version="1.0" encoding="UTF-8"?><svg xmlns="http://www.w3.org/2000/svg" xmlns:xlink="http://www.w3.org/1999/xlink" width="699" height="1247" viewBox="783 2645 699 1247">
<path fill-rule="evenodd" fill="rgb(100%, 100%, 100%)" fill-opacity="1" d="M 0 3970.847656 L 2963.21875 3970.847656 L 2963.21875 0 L 0 0 Z M 0 3970.847656 "/>
<path fill-rule="evenodd" fill="rgb(0%, 0%, 0%)" fill-opacity="1" d="M 140.160156 2522.300781 L 735.4375 2522.300781 L 735.4375 1680.410156 C 735.4375 1431.890625 464.246094 1544.25 437.800781 1430.589844 C 411.351562 1544.25 140.160156 1431.890625 140.160156 1680.410156 L 140.160156 2522.300781 L 735.4375 2522.300781 L 140.160156 2522.300781 L 735.4375 2522.300781 "/>
<path fill-rule="evenodd" fill="rgb(0%, 0%, 0%)" fill-opacity="1" d="M 2127.179688 2522.300781 L 1531.910156 2522.300781 L 1531.910156 1680.410156 L 1601.378906 1680.410156 C 1601.378906 1582.941406 1744.519531 1507.640625 1829.550781 1473.570312 C 1914.570312 1507.640625 2057.710938 1582.941406 2057.710938 1680.410156 L 2127.179688 1680.410156 L 2127.179688 2522.300781 L 1531.910156 2522.300781 Z M 2127.179688 2522.300781 "/>
<path fill-rule="evenodd" fill="rgb(0%, 0%, 0%)" fill-opacity="1" d="M 836.035156 2522.300781 L 1431.308594 2522.300781 L 1431.308594 1680.410156 L 1361.839844 1680.410156 C 1361.839844 1547.71875 1161.679688 1578.078125 1133.671875 1473.570312 C 1105.671875 1578.078125 905.507812 1547.71875 905.507812 1680.410156 L 836.035156 1680.410156 L 836.035156 2522.300781 L 1431.308594 2522.300781 "/>
<path fill-rule="evenodd" fill="rgb(0%, 0%, 0%)" fill-opacity="1" d="M 2227.78125 2522.300781 L 2823.058594 2522.300781 L 2823.058594 1680.410156 L 2786.859375 1680.410156 L 2786.859375 1644.089844 L 2750.53125 1644.089844 L 2750.53125 1607.761719 C 2750.53125 1509.25 2577.601562 1533.808594 2525.421875 1443.421875 C 2473.238281 1533.808594 2300.308594 1509.25 2300.308594 1607.761719 L 2300.308594 1644.089844 L 2263.980469 1644.089844 L 2263.980469 1680.410156 L 2227.78125 1680.410156 L 2227.78125 2522.300781 L 2823.058594 2522.300781 "/>
<path fill-rule="evenodd" fill="rgb(0%, 0%, 0%)" fill-opacity="1" d="M 1431.308594 1305.398438 L 836.035156 1305.398438 L 836.035156 463.511719 C 838.40625 319.199219 984.730469 300.519531 1133.671875 238.980469 C 1282.609375 300.519531 1428.941406 319.199219 1431.308594 463.511719 L 1431.308594 1305.398438 L 836.035156 1305.398438 "/>
<path fill-rule="evenodd" fill="rgb(0%, 0%, 0%)" fill-opacity="1" d="M 2227.78125 1305.398438 L 2823.058594 1305.398438 L 2823.058594 463.511719 C 2667.019531 463.511719 2744.261719 278.519531 2525.421875 278.519531 C 2306.578125 278.519531 2383.820312 463.511719 2227.78125 463.511719 L 2227.78125 1305.398438 L 2823.058594 1305.398438 "/>
<path fill-rule="evenodd" fill="rgb(0%, 0%, 0%)" fill-opacity="1" d="M 2127.179688 1305.398438 L 1531.910156 1305.398438 L 1531.910156 463.511719 C 1531.910156 285.421875 1779.621094 400.019531 1829.550781 213.691406 C 1879.46875 400.019531 2127.179688 285.421875 2127.179688 463.511719 L 2127.179688 1305.398438 L 1531.910156 1305.398438 "/>
<path fill-rule="evenodd" fill="rgb(0%, 0%, 0%)" fill-opacity="1" d="M 735.4375 1305.398438 L 140.160156 1305.398438 L 735.4375 1305.398438 L 140.160156 1305.398438 L 735.4375 1305.398438 L 735.4375 463.511719 C 735.4375 238.96875 471.808594 293.738281 437.800781 166.808594 C 403.789062 293.738281 140.160156 238.96875 140.160156 463.511719 L 140.160156 1305.398438 L 735.4375 1305.398438 L 140.160156 1305.398438 L 735.4375 1305.398438 L 140.160156 1305.398438 "/>
<path fill-rule="evenodd" fill="rgb(0%, 0%, 0%)" fill-opacity="1" d="M 2823.058594 3804.035156 L 2227.78125 3804.035156 L 2227.78125 2962.140625 C 2227.78125 2801.871094 2387.539062 2726.578125 2525.421875 2647.488281 C 2663.300781 2726.578125 2823.058594 2801.871094 2823.058594 2962.140625 L 2823.058594 3804.035156 L 2227.78125 3804.035156 "/>
<path fill-rule="evenodd" fill="rgb(0%, 0%, 0%)" fill-opacity="1" d="M 1531.910156 3804.035156 L 2127.179688 3804.035156 L 2127.179688 2962.140625 C 2077.761719 2962.140625 1881.71875 2962.140625 1829.550781 2806.808594 C 1777.378906 2962.140625 1581.328125 2962.140625 1531.910156 2962.140625 L 1531.910156 3804.035156 L 2127.179688 3804.035156 "/>
<path fill-rule="evenodd" fill="rgb(0%, 0%, 0%)" fill-opacity="1" d="M 140.160156 3804.035156 L 735.4375 3804.035156 L 735.4375 2962.140625 C 735.484375 2920.03125 717.394531 2900 673.289062 2900 C 673.289062 2768.289062 524.351562 2828.289062 437.800781 2741.738281 C 351.246094 2828.289062 202.308594 2768.289062 202.308594 2900 C 158.203125 2900 140.113281 2920.03125 140.160156 2962.140625 L 140.160156 3804.035156 L 735.4375 3804.035156 "/>
<path fill-rule="evenodd" fill="rgb(0%, 0%, 0%)" fill-opacity="1" d="M 1431.308594 3804.035156 L 836.035156 3804.035156 L 836.035156 2962.140625 C 836.035156 2916.570312 861.804688 2900 898.183594 2900 C 898.183594 2865.480469 921.019531 2837.851562 960.328125 2837.851562 C 960.328125 2721.941406 1065.75 2768.050781 1133.671875 2700.140625 C 1201.589844 2768.050781 1307.019531 2721.941406 1307.019531 2837.851562 C 1346.320312 2837.851562 1369.160156 2865.480469 1369.160156 2900 C 1405.539062 2900 1431.308594 2916.570312 1431.308594 2962.140625 L 1431.308594 3804.035156 L 836.035156 3804.035156 "/>
</svg>