<svg xmlns="http://www.w3.org/2000/svg" viewBox="0 0 400 600" width="100%" height="100%">
  <defs>
    <path id="flower" d="M 0,-5 C 10,-20 25,-10 15,0 C 30,5 25,25 10,15 C 10,30 -10,30 -10,15 C -25,25 -30,5 -15,0 C -25,-10 -10,-20 0,-5 Z" fill="#751616" stroke="#520e0e" stroke-width="1.5" stroke-linejoin="round" />

    <g id="right-half">
      <path d="M 200,185 Q 230,200 265,175" stroke="#314f24" stroke-width="6" fill="none" stroke-linecap="round"/>
      <path d="M 200,285 Q 220,295 240,270" stroke="#314f24" stroke-width="4" fill="none" stroke-linecap="round"/>
      <path d="M 200,380 Q 235,385 255,410" stroke="#314f24" stroke-width="6" fill="none" stroke-linecap="round"/>
      <path d="M 200,430 Q 220,435 235,455" stroke="#314f24" stroke-width="4" fill="none" stroke-linecap="round"/>

      <path d="M 200,150 Q 240,110 270,100 Q 250,150 200,165 Z" fill="#314f24" stroke="#233a19" stroke-width="1.5" stroke-linejoin="round"/>
      <path d="M 200,240 Q 260,230 310,250 Q 260,275 200,260 Z" fill="#314f24" stroke="#233a19" stroke-width="1.5" stroke-linejoin="round"/>
      <path d="M 200,340 Q 240,300 270,285 Q 240,340 200,355 Z" fill="#314f24" stroke="#233a19" stroke-width="1.5" stroke-linejoin="round"/>

      <path d="M 200,465 Q 210,465 215,480 Q 205,475 200,480 Z" fill="#314f24"/>
      <path d="M 200,450 Q 208,450 210,465 Q 205,462 200,460 Z" fill="#314f24"/>

      <use href="#flower" transform="translate(265, 175) rotate(15) scale(0.95)"/>
      <use href="#flower" transform="translate(240, 270) rotate(25) scale(0.65)"/>
      <use href="#flower" transform="translate(255, 410) rotate(-15) scale(0.85)"/>
      <use href="#flower" transform="translate(235, 455) rotate(-30) scale(0.55)"/>
    </g>
  </defs>

  <path d="M 200,95 L 200,480" stroke="#314f24" stroke-width="10" stroke-linecap="round" fill="none"/>

  <use href="#right-half" />
  
  <use href="#right-half" transform="translate(400, 0) scale(-1, 1)" />

  <use href="#flower" transform="translate(200, 90) scale(1.3)"/>
</svg>
